<?xml version="1.0" encoding="UTF-8" standalone="no"?>
<!-- Created with Inkscape (http://www.inkscape.org/) -->

<svg
   xmlns:dc="http://purl.org/dc/elements/1.1/"
   xmlns:cc="http://creativecommons.org/ns#"
   xmlns:rdf="http://www.w3.org/1999/02/22-rdf-syntax-ns#"
   xmlns:svg="http://www.w3.org/2000/svg"
   xmlns="http://www.w3.org/2000/svg"
   xmlns:sodipodi="http://sodipodi.sourceforge.net/DTD/sodipodi-0.dtd"
   xmlns:inkscape="http://www.inkscape.org/namespaces/inkscape"
   width="4.5184636in"
   height="1.1969613in"
   viewBox="0 0 406.66175 107.72651"
   id="svg2"
   version="1.1"
   inkscape:version="0.91 r13725"
   sodipodi:docname="vivid-svg-logo.svg"
   inkscape:export-filename="/Users/z002pd3/Desktop/vivid.png"
   inkscape:export-xdpi="90"
   inkscape:export-ydpi="90">
  <defs
     id="defs4" />
  <sodipodi:namedview
     id="base"
     pagecolor="#ffffff"
     bordercolor="#666666"
     borderopacity="1.0"
     inkscape:pageopacity="0.0"
     inkscape:pageshadow="2"
     inkscape:zoom="1.979899"
     inkscape:cx="318.2534"
     inkscape:cy="24.852831"
     inkscape:document-units="px"
     inkscape:current-layer="g4268"
     showgrid="false"
     inkscape:window-width="1440"
     inkscape:window-height="800"
     inkscape:window-x="0"
     inkscape:window-y="1"
     inkscape:window-maximized="1"
     fit-margin-top="0.25"
     fit-margin-left="0.25"
     fit-margin-right="0.25"
     fit-margin-bottom="0.25"
     showguides="false"
     units="in" />
  <metadata
     id="metadata7">
    <rdf:RDF>
      <cc:Work
         rdf:about="">
        <dc:format>image/svg+xml</dc:format>
        <dc:type
           rdf:resource="http://purl.org/dc/dcmitype/StillImage" />
        <dc:title></dc:title>
      </cc:Work>
    </rdf:RDF>
  </metadata>
  <g
     inkscape:label="Layer 1"
     inkscape:groupmode="layer"
     id="layer1"
     transform="translate(-38.968833,-289.29616)">
    <text
       xml:space="preserve"
       style="font-style:normal;font-weight:normal;font-size:40px;line-height:125%;font-family:sans-serif;letter-spacing:0px;word-spacing:0px;fill:#000000;fill-opacity:1;stroke:none;stroke-width:1px;stroke-linecap:butt;stroke-linejoin:miter;stroke-opacity:1"
       x="118.57143"
       y="388.07648"
       id="text4136"
       sodipodi:linespacing="125%"><tspan
         sodipodi:role="line"
         id="tspan4138"
         x="118.57143"
         y="388.07648"
         style="font-style:normal;font-variant:normal;font-weight:normal;font-stretch:normal;font-family:Helvetica;-inkscape-font-specification:Helvetica" /></text>
    <g
       id="g4268"
       transform="matrix(2.3999998,0,0,2.3999998,-88.382798,-536.52971)">
      <circle
         r="1.7464958"
         cy="355.21564"
         cx="124.8391"
         id="path4329"
         style="opacity:1;fill:#d291e3;fill-opacity:1;stroke:none;stroke-width:1;stroke-linecap:round;stroke-miterlimit:4;stroke-dasharray:none;stroke-opacity:1" />
      <circle
         style="opacity:1;fill:#d291e3;fill-opacity:1;stroke:none;stroke-width:1;stroke-linecap:round;stroke-miterlimit:4;stroke-dasharray:none;stroke-opacity:1"
         id="circle4331"
         cx="144.67236"
         cy="355.21564"
         r="1.7464958" />
      <path
         d="m 111.06974,359.18229 3.83264,11.68555 4.00685,-11.68555 2.63997,0 -5.41394,14.35232 -2.57297,0 -5.29333,-14.35232 2.80078,0 z"
         style="font-style:normal;font-variant:normal;font-weight:normal;font-stretch:normal;font-size:27.5px;line-height:125%;font-family:Helvetica;-inkscape-font-specification:Helvetica;letter-spacing:0px;word-spacing:0px;fill:#000000;fill-opacity:1;stroke:none;stroke-width:1px;stroke-linecap:butt;stroke-linejoin:miter;stroke-opacity:1"
         id="path4294"
         inkscape:connector-curvature="0" />
      <path
         inkscape:connector-curvature="0"
         id="path4323"
         d="m 123.61293,359.2493 2.45236,0 0,14.28531 -2.45236,0 0,-14.28531 z"
         style="font-style:normal;font-variant:normal;font-weight:normal;font-stretch:normal;font-size:27.5px;line-height:125%;font-family:Helvetica;-inkscape-font-specification:Helvetica;letter-spacing:0px;word-spacing:0px;fill:#000000;fill-opacity:1;stroke:none;stroke-width:1px;stroke-linecap:butt;stroke-linejoin:miter;stroke-opacity:1" />
      <path
         d="m 130.90299,359.18229 3.83264,11.68555 4.00686,-11.68555 2.63996,0 -5.41394,14.35232 -2.57296,0 -5.29334,-14.35232 2.80078,0 z"
         style="font-style:normal;font-variant:normal;font-weight:normal;font-stretch:normal;font-size:27.5px;line-height:125%;font-family:Helvetica;-inkscape-font-specification:Helvetica;letter-spacing:0px;word-spacing:0px;fill:#000000;fill-opacity:1;stroke:none;stroke-width:1px;stroke-linecap:butt;stroke-linejoin:miter;stroke-opacity:1"
         id="path4298"
         inkscape:connector-curvature="0" />
      <path
         inkscape:connector-curvature="0"
         id="path4327"
         d="m 143.44618,359.2493 2.45236,0 0,14.28531 -2.45236,0 0,-14.28531 z"
         style="font-style:normal;font-variant:normal;font-weight:normal;font-stretch:normal;font-size:27.5px;line-height:125%;font-family:Helvetica;-inkscape-font-specification:Helvetica;letter-spacing:0px;word-spacing:0px;fill:#000000;fill-opacity:1;stroke:none;stroke-width:1px;stroke-linecap:butt;stroke-linejoin:miter;stroke-opacity:1" />
      <path
         d="m 151.08467,366.52596 q 0,2.30494 0.97825,3.85945 0.97827,1.5545 3.1358,1.5545 1.67511,0 2.74718,-1.4339 1.08547,-1.44729 1.08547,-4.14086 0,-2.72037 -1.11228,-4.02025 -1.11226,-1.31329 -2.74716,-1.31329 -1.82252,0 -2.96159,1.39369 -1.12567,1.39369 -1.12567,4.10066 z m 3.63163,-7.59828 q 1.6483,0 2.76057,0.69685 0.64324,0.40202 1.46069,1.40708 l 0,-7.24985 2.31835,0 0,19.75285 -2.17094,0 0,-1.99674 q -0.84425,1.32669 -1.99673,1.91633 -1.15247,0.58964 -2.63996,0.58964 -2.39875,0 -4.15427,-2.01013 -1.75551,-2.02353 -1.75551,-5.37374 0,-3.1358 1.59471,-5.42734 1.6081,-2.30495 4.58309,-2.30495 z"
         style="font-style:normal;font-variant:normal;font-weight:normal;font-stretch:normal;font-size:27.5px;line-height:125%;font-family:Helvetica;-inkscape-font-specification:Helvetica;letter-spacing:0px;word-spacing:0px;fill:#000000;fill-opacity:1;stroke:none;stroke-width:1px;stroke-linecap:butt;stroke-linejoin:miter;stroke-opacity:1"
         id="path4302"
         inkscape:connector-curvature="0" />
      <path
         d="m 164.20409,364.64984 6.72723,0 0,2.47916 -6.72723,0 0,-2.47916 z"
         style="font-style:normal;font-variant:normal;font-weight:normal;font-stretch:normal;font-size:27.5px;line-height:125%;font-family:Helvetica;-inkscape-font-specification:Helvetica;letter-spacing:0px;word-spacing:0px;fill:#000000;fill-opacity:1;stroke:none;stroke-width:1px;stroke-linecap:butt;stroke-linejoin:miter;stroke-opacity:1"
         id="path4304"
         inkscape:connector-curvature="0" />
      <path
         d="m 175.434,369.03192 q 0.10721,1.20607 0.60304,1.84931 0.91126,1.16588 3.16261,1.16588 1.34008,0 2.35854,-0.57624 1.01846,-0.58964 1.01846,-1.80911 0,-0.92466 -0.81745,-1.40709 -0.52263,-0.29482 -2.06373,-0.68345 l -1.91631,-0.48242 q -1.83592,-0.45564 -2.70698,-1.01847 -1.55449,-0.97826 -1.55449,-2.70697 0,-2.03693 1.46069,-3.29661 1.47409,-1.25967 3.95324,-1.25967 3.24301,0 4.6769,1.90291 0.89786,1.20608 0.87105,2.59976 l -2.27814,0 q -0.067,-0.81745 -0.57623,-1.48748 -0.83085,-0.95146 -2.88119,-0.95146 -1.36689,0 -2.07713,0.52263 -0.69684,0.52263 -0.69684,1.38029 0,0.93806 0.92466,1.50089 0.53603,0.33501 1.5813,0.58963 l 1.5947,0.38863 q 2.59976,0.62984 3.48422,1.21948 1.40708,0.92465 1.40708,2.90798 0,1.91632 -1.46068,3.31001 -1.4473,1.39368 -4.42228,1.39368 -3.20281,0 -4.5429,-1.44728 -1.32668,-1.4607 -1.42049,-3.60483 l 2.31835,0 z m 3.56463,-10.19805 0,0 z"
         style="font-style:normal;font-variant:normal;font-weight:normal;font-stretch:normal;font-size:27.5px;line-height:125%;font-family:Helvetica;-inkscape-font-specification:Helvetica;letter-spacing:0px;word-spacing:0px;fill:#000000;fill-opacity:1;stroke:none;stroke-width:1px;stroke-linecap:butt;stroke-linejoin:miter;stroke-opacity:1"
         id="path4306"
         inkscape:connector-curvature="0" />
      <path
         d="m 188.95546,359.18229 3.83264,11.68555 4.00685,-11.68555 2.63997,0 -5.41394,14.35232 -2.57296,0 -5.29334,-14.35232 2.80078,0 z"
         style="font-style:normal;font-variant:normal;font-weight:normal;font-stretch:normal;font-size:27.5px;line-height:125%;font-family:Helvetica;-inkscape-font-specification:Helvetica;letter-spacing:0px;word-spacing:0px;fill:#000000;fill-opacity:1;stroke:none;stroke-width:1px;stroke-linecap:butt;stroke-linejoin:miter;stroke-opacity:1"
         id="path4308"
         inkscape:connector-curvature="0" />
      <path
         d="m 206.56417,358.92768 q 1.6885,0 2.94819,0.83085 0.68344,0.46904 1.39369,1.36689 l 0,-1.80911 2.22454,0 0,13.05242 q 0,2.73377 -0.80405,4.31507 -1.5009,2.92139 -5.66857,2.92139 -2.31834,0 -3.89964,-1.04527 -1.5813,-1.03187 -1.76891,-3.24301 l 2.45236,0 q 0.17421,0.96487 0.69684,1.4875 0.81745,0.80405 2.57296,0.80405 2.77398,0 3.63163,-1.95652 0.50923,-1.15248 0.46903,-4.11407 -0.72365,1.09888 -1.74211,1.63491 -1.01846,0.53604 -2.69357,0.53604 -2.33174,0 -4.08726,-1.64832 -1.74211,-1.66169 -1.74211,-5.48094 0,-3.60483 1.75551,-5.62836 1.76891,-2.02352 4.26147,-2.02352 z m 4.34188,7.37047 q 0,-2.66677 -1.09888,-3.95325 -1.09886,-1.28648 -2.80078,-1.28648 -2.54615,0 -3.48421,2.38534 -0.49583,1.27309 -0.49583,3.33682 0,2.42555 0.97826,3.69863 0.99166,1.25968 2.65336,1.25968 2.59977,0 3.65844,-2.34514 0.58964,-1.32669 0.58964,-3.0956 z m -4.06046,-7.46428 0,0 z"
         style="font-style:normal;font-variant:normal;font-weight:normal;font-stretch:normal;font-size:27.5px;line-height:125%;font-family:Helvetica;-inkscape-font-specification:Helvetica;letter-spacing:0px;word-spacing:0px;fill:#000000;fill-opacity:1;stroke:none;stroke-width:1px;stroke-linecap:butt;stroke-linejoin:miter;stroke-opacity:1"
         id="path4310"
         inkscape:connector-curvature="0" />
      <g
         id="g4179"
         transform="translate(0.29747574,0)" />
      <g
         id="g4337">
        <path
           style="fill:#d291e3;fill-opacity:1;fill-rule:evenodd;stroke:none;stroke-width:0.45313159px;stroke-linecap:butt;stroke-linejoin:miter;stroke-opacity:1"
           d="m 69.426673,360.42547 c -4.197776,6.10835 -2.216329,12.43541 2.068334,14.59383 2.57512,1.29723 5.062186,1.42829 8.019494,1.42829 2.957309,0 5.444375,-0.13106 8.019495,-1.42829 4.284663,-2.15842 6.26611,-8.48548 2.068334,-14.59383 -2.098888,-3.05417 -5.807018,-4.76851 -10.087829,-4.76851 -4.28081,0 -7.98894,1.71434 -10.087828,4.76851 z"
           id="path4150"
           inkscape:connector-curvature="0"
           sodipodi:nodetypes="sszsszs" />
        <g
           transform="translate(-0.275569,0.83333345)"
           id="g4183">
          <g
             transform="translate(-0.1694205,0)"
             id="g4223">
            <path
               sodipodi:nodetypes="zsszz"
               inkscape:connector-curvature="0"
               id="path4158"
               d="m 69.573121,356.43264 c -2.379968,-0.32431 -4.363469,0.29099 -5.649405,3.82731 -2.380953,6.54762 -0.352915,8.96766 2.827381,8.66072 1.613111,-0.15569 2.736437,-6.74109 4.419587,-9.22472 1.68315,-2.48363 0.782405,-2.939 -1.597563,-3.26331 z"
               style="fill:#e3baed;fill-opacity:1;fill-rule:evenodd;stroke:none;stroke-width:0.41666669px;stroke-linecap:butt;stroke-linejoin:miter;stroke-opacity:1" />
            <path
               style="fill:#e3baed;fill-opacity:1;fill-rule:evenodd;stroke:none;stroke-width:0.41666669px;stroke-linecap:butt;stroke-linejoin:miter;stroke-opacity:1"
               d="m 90.345861,356.43264 c 2.379968,-0.32431 4.363469,0.29099 5.649405,3.82731 2.380953,6.54762 0.352915,8.96766 -2.827381,8.66072 -1.613111,-0.15569 -2.736437,-6.74109 -4.419587,-9.22472 -1.68315,-2.48363 -0.782405,-2.939 1.597563,-3.26331 z"
               id="path4221"
               inkscape:connector-curvature="0"
               sodipodi:nodetypes="zsszz" />
          </g>
        </g>
        <path
           style="fill:#f2e1f6;fill-opacity:1;fill-rule:evenodd;stroke:none;stroke-width:0.41666669px;stroke-linecap:butt;stroke-linejoin:miter;stroke-opacity:1"
           d="m 76.976944,371.78534 c 0,0 0.399797,1.70904 2.537558,1.70904 2.137761,0 2.537558,-1.70904 2.537558,-1.70904 l -2.298361,-1.23757 z"
           id="path4193"
           inkscape:connector-curvature="0"
           sodipodi:nodetypes="czccc" />
        <path
           sodipodi:nodetypes="czccc"
           inkscape:connector-curvature="0"
           id="path4195"
           d="m 77.978793,370.85191 c 0,0 0.241955,1.70903 1.535709,1.70903 1.293755,0 1.535708,-1.70903 1.535708,-1.70903 l -1.390948,-1.23758 z"
           style="fill:#ff99c8;fill-opacity:1;fill-rule:evenodd;stroke:none;stroke-width:0.41666669px;stroke-linecap:butt;stroke-linejoin:miter;stroke-opacity:1" />
        <path
           sodipodi:nodetypes="czcc"
           style="fill:#ffffff;fill-opacity:1;fill-rule:evenodd;stroke:none;stroke-width:0.41666669px;stroke-linecap:butt;stroke-linejoin:miter;stroke-opacity:1"
           d="m 77.062704,370.71305 c 0,0 0.758155,2.40876 1.420527,2.28862 0.662372,-0.12014 0.578734,-2.55168 0.578734,-2.55168 z"
           id="path4303"
           inkscape:connector-curvature="0" />
        <g
           transform="matrix(1.1201286,0,0,1.1201286,-9.1731163,-44.48428)"
           id="g4204">
          <path
             style="fill:#e3baed;fill-opacity:1;fill-rule:evenodd;stroke:none;stroke-width:0.41666669px;stroke-linecap:butt;stroke-linejoin:miter;stroke-opacity:1"
             d="m 79.176286,367.46183 c 0,0 -1.853297,-0.14232 -3.273824,1.54127 -1.420527,1.68359 -0.631345,2.82553 0.526121,3.08859 1.157467,0.26307 2.73583,-0.0526 3.261952,-1.36791 0.526121,-1.3153 -0.514249,-3.26195 -0.514249,-3.26195 z"
             id="path4199"
             inkscape:connector-curvature="0"
             sodipodi:nodetypes="csssc" />
          <path
             sodipodi:nodetypes="csssc"
             inkscape:connector-curvature="0"
             id="path4201"
             d="m 79.176286,367.46183 c 0,0 1.853298,-0.14232 3.273825,1.54127 1.420527,1.68359 0.631345,2.82553 -0.526121,3.08859 -1.157467,0.26307 -2.73583,-0.0526 -3.261952,-1.36791 -0.526121,-1.3153 0.514248,-3.26195 0.514248,-3.26195 z"
             style="fill:#e3baed;fill-opacity:1;fill-rule:evenodd;stroke:none;stroke-width:0.41666669px;stroke-linecap:butt;stroke-linejoin:miter;stroke-opacity:1" />
        </g>
        <path
           sodipodi:nodetypes="szszs"
           style="fill:#d291e3;fill-opacity:1;fill-rule:evenodd;stroke:none;stroke-width:0.41666669px;stroke-linecap:butt;stroke-linejoin:miter;stroke-opacity:1"
           d="m 78.093976,369.49678 c -0.631346,-1.10486 0.887149,-1.5699 1.420527,-1.5699 0.533379,0 2.051873,0.46504 1.420527,1.5699 -0.631345,1.10485 -1.052242,1.10485 -1.420527,1.10485 -0.368285,0 -0.789182,0 -1.420527,-1.10485 z"
           id="path4164"
           inkscape:connector-curvature="0" />
        <g
           id="g4247">
          <g
             transform="matrix(1.3238867,0,0,1.3238867,-23.999299,-118.34137)"
             id="g4263">
            <circle
               style="opacity:1;fill:#ffffff;fill-opacity:1;stroke:none;stroke-width:20;stroke-linecap:round;stroke-linejoin:round;stroke-miterlimit:4;stroke-dasharray:none;stroke-opacity:1"
               id="circle4241"
               cx="74.097832"
               cy="365.37897"
               r="1.8377976" />
            <circle
               r="1.4285715"
               cy="365.37897"
               cx="74.097832"
               id="path4227"
               style="opacity:1;fill:#11d9f6;fill-opacity:1;stroke:none;stroke-width:20;stroke-linecap:round;stroke-linejoin:round;stroke-miterlimit:4;stroke-dasharray:none;stroke-opacity:1" />
            <circle
               style="opacity:1;fill:#ffffff;fill-opacity:1;stroke:none;stroke-width:20;stroke-linecap:round;stroke-linejoin:round;stroke-miterlimit:4;stroke-dasharray:none;stroke-opacity:1"
               id="path4261"
               cx="73.635918"
               cy="364.83102"
               r="0.41666669" />
          </g>
        </g>
        <g
           transform="translate(10.833334,0)"
           id="g4269">
          <g
             id="g4271"
             transform="matrix(1.3238867,0,0,1.3238867,-23.999299,-118.34137)">
            <circle
               r="1.8377976"
               cy="365.37897"
               cx="74.097832"
               id="circle4273"
               style="opacity:1;fill:#ffffff;fill-opacity:1;stroke:none;stroke-width:20;stroke-linecap:round;stroke-linejoin:round;stroke-miterlimit:4;stroke-dasharray:none;stroke-opacity:1" />
            <circle
               style="opacity:1;fill:#11d9f6;fill-opacity:1;stroke:none;stroke-width:20;stroke-linecap:round;stroke-linejoin:round;stroke-miterlimit:4;stroke-dasharray:none;stroke-opacity:1"
               id="circle4275"
               cx="74.097832"
               cy="365.37897"
               r="1.4285715" />
            <circle
               r="0.41666669"
               cy="364.83102"
               cx="73.635918"
               id="circle4277"
               style="opacity:1;fill:#ffffff;fill-opacity:1;stroke:none;stroke-width:20;stroke-linecap:round;stroke-linejoin:round;stroke-miterlimit:4;stroke-dasharray:none;stroke-opacity:1" />
          </g>
        </g>
        <g
           id="g4291"
           transform="matrix(0.81651376,0,0,0.81651376,19.0126,62.042017)">
          <g
             transform="matrix(1.3238867,0,0,1.3238867,-23.999299,-118.34137)"
             id="g4293">
            <circle
               style="opacity:1;fill:#ffffff;fill-opacity:1;stroke:none;stroke-width:20;stroke-linecap:round;stroke-linejoin:round;stroke-miterlimit:4;stroke-dasharray:none;stroke-opacity:1"
               id="circle4295"
               cx="74.097832"
               cy="365.37897"
               r="1.8377976" />
            <circle
               r="1.4285715"
               cy="365.37897"
               cx="74.097832"
               id="circle4297"
               style="opacity:1;fill:#11d9f6;fill-opacity:1;stroke:none;stroke-width:20;stroke-linecap:round;stroke-linejoin:round;stroke-miterlimit:4;stroke-dasharray:none;stroke-opacity:1" />
            <circle
               style="opacity:1;fill:#ffffff;fill-opacity:1;stroke:none;stroke-width:20;stroke-linecap:round;stroke-linejoin:round;stroke-miterlimit:4;stroke-dasharray:none;stroke-opacity:1"
               id="circle4299"
               cx="73.635918"
               cy="364.83102"
               r="0.41666669" />
          </g>
        </g>
      </g>
    </g>
  </g>
</svg>
